Coordinates
version=1
nRows=21
nColumns=28
inDegrees=yes

Units are S.I. units (second, meters, Newtons, ...)
Angles are in degrees.

endheader
time	pelvis_tilt	pelvis_list	pelvis_rotation	pelvis_tx	pelvis_ty	pelvis_tz	hip_flexion_r	hip_adduction_r	hip_rotation_r	knee_angle_r	ankle_angle_r	subtalar_angle_r	mtp_angle_r	hip_flexion_l	hip_adduction_l	hip_rotation_l	knee_angle_l	socket_flexion	socket_adduction	socket_rotation	socket_tx	socket_ty	socket_tz	foot_flex	lumbar_extension	lumbar_bending	lumbar_rotation
      0.54583333	      0.57492919	     -4.88025405	     10.82830151	     -0.03626748	      0.96467037	      0.21327894	     23.88496201	      5.60038631	     -5.37131419	     -9.50219875	      7.89621834	    -18.87183913	     -8.08862994	    -18.13353626	     -5.46242121	     -7.12098338	    -14.53503951	     -0.55605645	     -5.29353873	     19.44160248	      0.00000000	     -0.00067741	      0.00000000	     10.07433170	     -8.40876543	      5.97639316	    -19.18099140
      0.55000000	      0.25335815	     -4.81865158	     10.84119014	     -0.03631962	      0.96421753	      0.21330358	     24.30660542	      5.43308066	     -5.48996537	     -9.66068671	      7.86692274	    -18.78545461	     -6.77741633	    -17.72492628	     -5.35754721	     -7.00499594	    -14.68232137	     -0.59198721	     -5.30990422	     19.42495106	      0.00000000	     -0.00071318	      0.00000000	     10.07212439	     -8.04473915	      5.83671233	    -19.23682132
      0.55416667	      0.36024610	     -4.91418055	     10.91064310	     -0.03001713	      0.96308998	      0.21292707	     24.48361795	      5.61683503	     -5.34761409	    -10.55390043	      7.49153665	    -18.78150368	     -6.72735250	    -17.96292181	     -5.51616052	     -6.94732398	    -14.96206724	     -0.34886089	     -5.34512205	     19.42649388	      0.00000000	     -0.00061406	      0.00000000	     10.11364289	     -8.11195494	      6.06442183	    -19.26385138
      0.55833333	      0.24490974	     -4.97359336	     10.82119785	     -0.02363025	      0.96153482	      0.21291356	     25.07955951	      5.72733211	     -5.43134749	    -11.74933507	      6.04175097	    -19.69441875	     -2.93448753	    -17.86192171	     -5.59942835	     -7.28575476	    -15.71969717	     -0.41859644	     -5.50382745	     19.56255243	      0.00000000	     -0.00048289	      0.00000000	     10.11803318	     -7.92318962	      6.18682292	    -19.23647068
      0.56250000	      0.34233008	     -5.06307348	     10.79936785	     -0.01719104	      0.96038420	      0.21272418	     25.32439365	      5.91445664	     -5.36491822	    -12.78593229	      5.58755319	    -19.68468868	     -2.94164922	    -18.09682374	     -5.73184127	     -7.29987666	    -15.99574230	     -0.14540426	     -5.48388791	     19.48043875	      0.00000000	     -0.00041840	      0.00000000	     10.10626356	     -7.96444615	      6.40461138	    -19.25601544
      0.56666667	      0.40500805	     -5.14500662	     10.74794596	     -0.01075977	      0.95920289	      0.21264597	     25.62619048	      6.09727138	     -5.28635262	    -13.86667827	      5.07438013	    -19.69005581	     -2.91091575	    -18.27008112	     -5.84797311	     -7.33640732	    -16.29535394	      0.15522793	     -5.45741888	     19.42024990	      0.00000000	     -0.00039687	      0.00000000	     10.05273773	     -7.97186764	      6.59486259	    -19.24613411
      0.57083333	     -0.01781765	     -5.13834639	     10.47116698	     -0.00438034	      0.95735253	      0.21300674	     26.52706624	      6.20544068	     -4.81766873	    -15.12629715	      4.28581870	    -20.17456297	     -2.10668311	    -17.85043261	     -5.73697480	     -7.53814667	    -16.86411994	      0.38485439	     -5.51232574	     19.42300096	      0.00000000	     -0.00029930	      0.00000000	      9.97162614	     -7.47931495	      6.53353372	    -18.85332097
      0.57500000	      0.09999643	     -5.24672845	     10.43020893	      0.00212339	      0.95633750	      0.21296047	     26.73134744	      6.42227751	     -4.74036384	    -16.15443604	      3.77384452	    -20.16454480	     -2.03808837	    -18.01537083	     -5.89727436	     -7.56097077	    -17.26589989	      0.68606666	     -5.47904417	     19.33197630	      0.00000000	     -0.00025869	      0.00000000	      9.83549426	     -7.54613399	      6.77086601	    -18.88828031
      0.57916667	     -0.22971425	     -5.29252141	     10.21489652	      0.00849347	      0.95470410	      0.21337473	     27.47467030	      6.60119031	     -4.30564489	    -17.28950205	      2.86250424	    -20.77375638	     -0.95423876	    -17.54264341	     -5.91675518	     -7.80680793	    -18.16520183	      0.76151831	     -5.57331756	     19.38558719	      0.00000000	     -0.00013950	      0.00000000	      9.67181538	     -7.13260491	      6.78212848	    -18.58734404
      0.58333333	     -0.09491218	     -5.41546121	     10.15640503	      0.01506902	      0.95380385	      0.21341862	     27.63512491	      6.84368361	     -4.22970634	    -18.28996048	      2.40529504	    -20.72399368	     -0.90306742	    -17.68240125	     -6.09795280	     -7.83525955	    -18.59015268	      1.12319065	     -5.50763251	     19.28945097	      0.00000000	     -0.00010270	      0.00000000	      9.45780682	     -7.21210170	      7.02685851	    -18.61944519
      0.58750000	     -0.10787641	     -5.52604370	     10.00344987	      0.02171134	      0.95272186	      0.21360653	     28.00333539	      7.06650079	     -4.13848069	    -19.40371655	      1.74470171	    -20.79868323	     -0.65585842	    -17.62368906	     -6.21248490	     -8.05345338	    -19.15438266	      1.43260414	     -5.54445890	     19.20940122	      0.00000000	     -0.00004484	      0.00000000	      9.19676796	     -7.10680392	      7.17902678	    -18.47070513
      0.59166667	     -0.00597653	     -5.63844678	      9.98751196	      0.02825016	      0.95198732	      0.21379058	     28.10710693	      7.31896755	     -3.90061278	    -20.26149566	      1.47745881	    -20.75108822	     -0.59135802	    -17.63091023	     -6.42401960	     -7.99527303	    -19.63634130	      1.88223026	     -5.39254172	     19.20293699	      0.00000000	      0.00002848	      0.00000000	      8.92385993	     -7.15288245	      7.40153476	    -18.44443809
      0.59583333	      0.04740035	     -5.78423877	      9.80443672	      0.03491994	      0.95110986	      0.21411634	     28.35956716	      7.61297282	     -3.78933889	    -21.30650164	      1.07061608	    -20.77281130	     -0.47827405	    -17.59225917	     -6.59080769	     -8.15553471	    -20.22196208	      2.23969546	     -5.31679364	     18.99840566	      0.00000000	      0.00005825	      0.00000000	      8.55195325	     -7.13755245	      7.63838532	    -18.33936320
      0.60000000	     -0.44218216	     -5.86657608	      9.48278803	      0.04133144	      0.94947842	      0.21506583	     29.22713090	      7.89858465	     -3.21395015	    -22.41293074	      0.40638271	    -21.42875086	      0.39075797	    -16.63238857	     -6.69354370	     -8.71210994	    -21.83318784	      2.07669253	     -5.54691847	     19.19499681	      0.00000000	      0.00038257	      0.00000000	      8.17403351	     -6.54974719	      7.58094126	    -17.67806228
      0.60416667	     -0.30231389	     -5.98929498	      9.50229370	      0.04796447	      0.94906839	      0.21517033	     29.20427759	      8.14052160	     -3.07150787	    -23.16027331	      0.22609831	    -21.37685566	      0.41503644	    -16.58069046	     -6.91207861	     -8.71775751	    -22.33187052	      2.67489293	     -5.44917407	     19.07162646	      0.00000000	      0.00056590	      0.00000000	      7.79898837	     -6.63232014	      7.79511128	    -17.69864081
      0.60833333	     -0.15317554	     -6.19028548	      9.31319955	      0.05479652	      0.94847830	      0.21563276	     29.29208079	      8.50898426	     -3.05300299	    -24.14510522	     -0.01361278	    -21.37050767	      0.46940153	    -16.57703407	     -7.17528788	     -8.84964524	    -22.97322939	      3.04487591	     -5.30717988	     18.76456472	      0.00000000	      0.00052726	      0.00000000	      7.26790934	     -6.68594964	      8.09900725	    -17.67547312
      0.61250000	     -0.33839243	     -6.41551380	      9.18841492	      0.06126841	      0.94750511	      0.21630472	     29.71074199	      8.88826340	     -2.82163084	    -25.02262493	     -0.37893277	    -21.78399715	      0.94326705	    -15.73475892	     -7.57173716	     -9.37250896	    -24.91037520	      2.73871549	     -5.60435163	     18.88343411	      0.00000000	      0.00105286	      0.00000000	      6.74756597	     -6.39814822	      8.29956631	    -17.27899022
      0.61666667	     -0.18946036	     -6.58684118	      9.09132489	      0.06804733	      0.94720070	      0.21670256	     29.67007647	      9.21941120	     -2.74399917	    -25.80435905	     -0.46278426	    -21.76454757	      0.97532561	    -15.64120167	     -7.84274146	     -9.49246944	    -25.50233983	      3.29219607	     -5.45299530	     18.58502496	      0.00000000	      0.00112017	      0.00000000	      6.21285759	     -6.45931788	      8.54260995	    -17.28571555
      0.62083333	     -0.05153052	     -6.79566432	      8.94349177	      0.07477474	      0.94690137	      0.21718207	     29.63180816	      9.60484932	     -2.67720544	    -26.55503851	     -0.47458686	    -21.75645722	      1.01886241	    -15.48256145	     -8.14022524	     -9.63084080	    -26.22187427	      3.78124036	     -5.32991926	     18.19215631	      0.00000000	      0.00115339	      0.00000000	      5.62993124	     -6.53221437	      8.82520070	    -17.20374536
      0.62500000	      0.08026898	     -6.97989897	      8.86004524	      0.08161389	      0.94676555	      0.21760321	     29.52296031	      9.95020038	     -2.58566054	    -27.23337987	     -0.44857884	    -21.74549574	      1.06009164	    -15.26580752	     -8.44559223	     -9.78533117	    -26.97740362	      4.27437209	     -5.23316366	     17.76313912	      0.00000000	      0.00134443	      0.00000000	      5.07062543	     -6.56430584	      9.07407967	    -17.08732163
      0.62916667	      0.20533767	     -7.06672193	      8.87714071	      0.08841232	      0.94689461	      0.21788159	     29.29644730	     10.15432418	     -2.52512380	    -27.70182758	     -0.44816203	    -21.72318118	      1.07988090	    -14.98932712	     -8.67693076	     -9.98094596	    -27.58868370	      5.04805255	     -5.16749866	     17.37763119	      0.00000000	      0.00179817	      0.00000000	      4.65969077	     -6.58427097	      9.17536647	    -17.04123833
